# Blender 3.5.0
# www.blender.org
mtllib Reticle.mtl
o 立方体
v -0.500000 -0.500000 0.050000
v -0.400000 -0.400000 0.050000
v -0.500000 0.500000 0.050000
v -0.400000 0.400000 0.050000
v -0.500000 -0.500000 -0.050000
v -0.400000 -0.400000 -0.050000
v -0.500000 0.500000 -0.050000
v -0.400000 0.400000 -0.050000
v 0.500000 -0.500000 0.050000
v 0.400000 -0.400000 0.050000
v 0.500000 0.500000 0.050000
v 0.400000 0.400000 0.050000
v 0.500000 -0.500000 -0.050000
v 0.400000 -0.400000 -0.050000
v 0.400000 0.400000 -0.050000
v 0.500000 0.500000 -0.050000
vn -1.0000 -0.0000 -0.0000
vn -0.0000 -0.0000 -1.0000
vn 1.0000 -0.0000 -0.0000
vn -0.0000 -0.0000 1.0000
vn -0.0000 -1.0000 -0.0000
vn -0.0000 1.0000 -0.0000
vt 0.375000 0.000000
vt 0.375000 1.000000
vt 0.125000 0.750000
vt 0.400000 0.975000
vt 0.375000 0.000000
vt 0.125000 0.750000
vt 0.625000 0.000000
vt 0.625000 1.000000
vt 0.875000 0.750000
vt 0.625000 0.000000
vt 0.875000 0.750000
vt 0.600000 0.975000
vt 0.125000 0.500000
vt 0.375000 0.250000
vt 0.125000 0.500000
vt 0.400000 0.275000
vt 0.375000 0.250000
vt 0.625000 0.250000
vt 0.875000 0.500000
vt 0.600000 0.275000
vt 0.625000 0.250000
vt 0.875000 0.500000
vt 0.375000 0.750000
vt 0.400000 0.775000
vt 0.375000 0.750000
vt 0.625000 0.750000
vt 0.600000 0.775000
vt 0.625000 0.750000
vt 0.375000 0.500000
vt 0.400000 0.475000
vt 0.375000 0.500000
vt 0.600000 0.475000
vt 0.625000 0.500000
vt 0.625000 0.500000
s 0
usemtl マテリアル
f 3/7/1 5/14/1 1/1/1
f 14/30/2 16/34/2 13/29/2
f 8/20/2 6/16/2 5/14/2
f 16/34/3 9/23/3 13/29/3
f 4/12/4 1/2/4 2/4/4
f 12/27/4 10/24/4 9/23/4
f 13/29/5 1/3/5 5/13/5
f 7/19/6 11/26/6 16/34/6
f 2/5/3 8/21/3 4/10/3
f 15/33/1 10/25/1 12/28/1
f 2/6/6 14/31/6 6/15/6
f 8/22/5 12/28/5 4/11/5
f 3/7/1 7/18/1 5/14/1
f 14/30/2 15/32/2 16/34/2
f 14/30/2 13/29/2 6/16/2
f 13/29/2 5/14/2 6/16/2
f 7/18/2 16/34/2 15/32/2
f 7/18/2 15/32/2 8/20/2
f 7/18/2 8/20/2 5/14/2
f 16/34/3 11/26/3 9/23/3
f 4/12/4 3/8/4 1/2/4
f 10/24/4 2/4/4 1/2/4
f 11/26/4 3/8/4 4/12/4
f 11/26/4 4/12/4 12/27/4
f 10/24/4 1/2/4 9/23/4
f 11/26/4 12/27/4 9/23/4
f 13/29/5 9/23/5 1/3/5
f 7/19/6 3/9/6 11/26/6
f 2/5/3 6/17/3 8/21/3
f 15/33/1 14/31/1 10/25/1
f 2/6/6 10/25/6 14/31/6
f 8/22/5 15/33/5 12/28/5
