# Blender 3.5.0
# www.blender.org
mtllib player.mtl
o head
v 0.741316 2.424889 -0.545991
v 0.741316 1.575111 -0.545991
v 0.741316 2.424889 0.545991
v 0.741316 1.575111 0.545991
v -0.741316 2.424889 -0.545991
v -0.741316 1.575111 -0.545991
v -0.741316 2.424889 0.545991
v -0.741316 1.575111 0.545991
vn -0.0000 1.0000 -0.0000
vn -0.0000 -0.0000 1.0000
vn -1.0000 -0.0000 -0.0000
vn -0.0000 -1.0000 -0.0000
vn 1.0000 -0.0000 -0.0000
vn -0.0000 -0.0000 -1.0000
vt 0.376430 0.376865
vt 0.580253 0.101911
vt 0.535877 0.261793
vt 0.101911 0.377300
vt 0.580253 0.057536
vt 0.535877 0.217418
vt 0.376430 0.421241
vt 0.420806 0.261793
vt 0.535877 0.101911
vt 0.420806 0.217418
vt 0.101911 0.421675
vt 0.535877 0.057536
vt 0.420806 0.376865
vt 0.535877 0.421241
vt 0.580253 0.261793
vt 0.535877 0.376865
vt 0.057536 0.377300
vt 0.580253 0.217418
vt 0.420806 0.421241
vt 0.376430 0.261793
vt 0.580253 0.421241
vt 0.376430 0.217418
vt 0.580253 0.376865
vt 0.057536 0.421675
s 0
usemtl Material
f 1/1/1 5/13/1 7/19/1 3/7/1
f 4/10/2 3/8/2 7/20/2 8/22/2
f 8/23/3 7/21/3 5/14/3 6/16/3
f 6/17/4 2/4/4 4/11/4 8/24/4
f 2/5/5 1/2/5 3/9/5 4/12/5
f 6/18/6 5/15/6 1/3/6 2/6/6
o body
v -0.392738 0.454009 0.392738
v -0.545991 1.545991 0.545991
v -0.392738 0.454009 -0.392738
v -0.545991 1.545991 -0.545991
v 0.392738 0.454009 0.392738
v 0.545991 1.545991 0.545991
v 0.392738 0.454009 -0.392738
v 0.545991 1.545991 -0.545991
vn -0.9903 -0.1390 -0.0000
vn -0.0000 -0.1390 -0.9903
vn 0.9903 -0.1390 -0.0000
vn -0.0000 -0.1390 0.9903
vn -0.0000 -1.0000 -0.0000
vn -0.0000 1.0000 -0.0000
vt 0.095684 0.057536
vt 0.223211 0.217418
vt 0.057536 0.568667
vt 0.101911 0.102346
vt 0.216983 0.262228
vt 0.420806 0.101911
vt 0.063764 0.057536
vt 0.255131 0.057536
vt 0.057536 0.536747
vt 0.057536 0.102346
vt 0.261358 0.102346
vt 0.420806 0.057536
vt 0.063764 0.217418
vt 0.255131 0.217418
vt 0.089456 0.568667
vt 0.057536 0.262228
vt 0.261358 0.262228
vt 0.376430 0.101911
vt 0.223211 0.057536
vt 0.095684 0.217418
vt 0.089456 0.536747
vt 0.216983 0.102346
vt 0.101911 0.262228
vt 0.376430 0.057536
s 0
usemtl マテリアル.003
f 9/25/7 10/28/7 12/34/7 11/31/7
f 11/32/8 12/35/8 16/46/8 15/43/8
f 15/44/9 16/47/9 14/40/9 13/37/9
f 13/38/10 14/41/10 10/29/10 9/26/10
f 11/33/11 15/45/11 13/39/11 9/27/11
f 16/48/12 12/36/12 10/30/12 14/42/12
o 立方体.001
v -1.292842 0.060980 0.259454
v -1.292842 1.152962 0.259454
v -1.292842 0.060980 -0.259454
v -1.292842 1.152962 -0.259454
v -0.800111 0.060980 0.259454
v -0.800111 1.152962 0.259454
v -0.800111 0.060980 -0.259454
v -0.800111 1.152962 -0.259454
v -1.373232 0.988572 0.318382
v -1.429829 1.421926 0.318382
v -1.373232 0.988572 -0.318382
v -1.429829 1.421926 -0.318382
v -0.683360 0.891344 0.318382
v -0.764014 1.508884 0.318382
v -0.683360 0.891344 -0.318382
v -0.764014 1.508884 -0.318382
vn -1.0000 -0.0000 -0.0000
vn -0.0000 -0.0000 -1.0000
vn 1.0000 -0.0000 -0.0000
vn -0.0000 -0.0000 1.0000
vn -0.0000 -1.0000 -0.0000
vn -0.0000 1.0000 -0.0000
vn -0.9916 -0.1295 -0.0000
vn 0.9916 0.1295 -0.0000
vn -0.1396 -0.9902 -0.0000
vn -0.1295 0.9916 -0.0000
vt 0.397517 0.536312
vt 0.695324 0.057536
vt 0.922490 0.859205
vt 0.397517 0.580594
vt 0.695324 0.101911
vt 0.396411 0.860067
vt 0.376430 0.536312
vt 0.715348 0.376865
vt 0.922490 0.838118
vt 0.376430 0.580594
vt 0.715348 0.421241
vt 0.396411 0.838980
vt 0.512589 0.536312
vt 0.715348 0.057536
vt 0.942464 0.859205
vt 0.512589 0.580594
vt 0.715348 0.101911
vt 0.376430 0.860067
vt 0.695324 0.376865
vt 0.533676 0.536312
vt 0.942464 0.838118
vt 0.695324 0.421241
vt 0.533676 0.580594
vt 0.376430 0.838980
vt 0.666470 0.863937
vt 0.848179 0.057536
vt 0.083412 0.711981
vt 0.648748 0.863937
vt 0.830419 0.057536
vt 0.261358 0.696007
vt 0.666470 0.838060
vt 0.791391 0.536312
vt 0.057536 0.711981
vt 0.648748 0.838060
vt 0.809151 0.536312
vt 0.235482 0.696007
vt 0.855675 0.199894
vt 0.855728 0.084823
vt 0.083412 0.683738
vt 0.830419 0.199894
vt 0.830419 0.084823
vt 0.261358 0.723237
vt 0.783842 0.563599
vt 0.855675 0.225771
vt 0.057536 0.683738
vt 0.809151 0.563599
vt 0.830419 0.225771
vt 0.235482 0.723237
s 0
usemtl マテリアル.004
f 17/49/13 18/52/13 20/58/13 19/55/13
f 19/56/14 20/59/14 24/70/14 23/67/14
f 23/68/15 24/71/15 22/64/15 21/61/15
f 21/62/16 22/65/16 18/53/16 17/50/16
f 19/57/17 23/69/17 21/63/17 17/51/17
f 24/72/18 20/60/18 18/54/18 22/66/18
f 25/73/19 26/76/19 28/82/19 27/79/19
f 27/80/14 28/83/14 32/94/14 31/91/14
f 31/92/20 32/95/20 30/88/20 29/85/20
f 29/86/16 30/89/16 26/77/16 25/74/16
f 27/81/21 31/93/21 29/87/21 25/75/21
f 32/96/22 28/84/22 26/78/22 30/90/22
o 立方体.002
v 1.152841 0.060980 0.259454
v 1.152841 1.152962 0.259454
v 1.152841 0.060980 -0.259454
v 1.152841 1.152962 -0.259454
v 0.660111 0.060980 0.259454
v 0.660111 1.152962 0.259454
v 0.660111 0.060980 -0.259454
v 0.660111 1.152962 -0.259454
v 1.233232 0.988572 0.318382
v 1.289829 1.421926 0.318382
v 1.233232 0.988572 -0.318382
v 1.289829 1.421926 -0.318382
v 0.543360 0.891344 0.318382
v 0.624014 1.508884 0.318382
v 0.543360 0.891344 -0.318382
v 0.624014 1.508884 -0.318382
vn -1.0000 -0.0000 -0.0000
vn -0.0000 -0.0000 1.0000
vn 1.0000 -0.0000 -0.0000
vn -0.0000 -0.0000 -1.0000
vn -0.0000 1.0000 -0.0000
vn -0.0000 -1.0000 -0.0000
vn -0.9916 0.1295 -0.0000
vn 0.9916 -0.1295 -0.0000
vn -0.1396 0.9902 -0.0000
vn -0.1295 -0.9916 -0.0000
vt 0.261358 0.536653
vt 0.648748 0.536312
vt 0.511483 0.860067
vt 0.261358 0.580936
vt 0.648748 0.580688
vt 0.255463 0.859395
vt 0.240271 0.536653
vt 0.715348 0.217418
vt 0.511483 0.838980
vt 0.240271 0.580936
vt 0.715348 0.261793
vt 0.255463 0.838308
vt 0.240271 0.377300
vt 0.668771 0.536312
vt 0.531457 0.860067
vt 0.240271 0.421582
vt 0.668771 0.580688
vt 0.235482 0.859395
vt 0.695324 0.217418
vt 0.261358 0.377300
vt 0.531457 0.838980
vt 0.695324 0.261793
vt 0.261358 0.421582
vt 0.235482 0.838308
vt 0.807418 0.863994
vt 0.807456 0.695759
vt 0.402307 0.723908
vt 0.789696 0.863994
vt 0.789696 0.695759
vt 0.674624 0.695759
vt 0.807418 0.838118
vt 0.065084 0.827052
vt 0.376430 0.723908
vt 0.789696 0.838118
vt 0.082844 0.827052
vt 0.648748 0.695759
vt 0.855675 0.340842
vt 0.815004 0.723046
vt 0.402307 0.695666
vt 0.830419 0.340842
vt 0.789696 0.723046
vt 0.674624 0.722989
vt 0.057536 0.854339
vt 0.855675 0.366719
vt 0.376430 0.695666
vt 0.082844 0.854339
vt 0.830419 0.366719
vt 0.648748 0.722989
s 0
usemtl マテリアル.002
f 33/97/23 34/100/23 36/106/23 35/103/23
f 35/104/24 36/107/24 40/118/24 39/115/24
f 39/116/25 40/119/25 38/112/25 37/109/25
f 37/110/26 38/113/26 34/101/26 33/98/26
f 35/105/27 39/117/27 37/111/27 33/99/27
f 40/120/28 36/108/28 34/102/28 38/114/28
f 41/121/29 42/124/29 44/130/29 43/127/29
f 43/128/24 44/131/24 48/142/24 47/139/24
f 47/140/30 48/143/30 46/136/30 45/133/30
f 45/134/26 46/137/26 42/125/26 41/122/26
f 43/129/31 47/141/31 45/135/31 41/123/31
f 48/144/32 44/132/32 42/126/32 46/138/32
