# Blender 3.5.0
# www.blender.org
mtllib weapon.mtl
o 立方体
v 0.030886 1.290439 0.069044
v 0.030886 2.123971 -0.013657
v -0.030886 1.290439 0.069044
v -0.030886 2.123971 -0.013657
v 0.030886 1.290439 -0.051575
v 0.030886 2.123971 -0.134276
v -0.030886 1.290439 -0.051575
v -0.030886 2.123971 -0.134276
v -0.030886 2.755662 -0.415361
v -0.030886 1.499410 -0.362175
v 0.030886 1.499410 -0.362175
v 0.030886 2.755662 -0.415361
v 0.030886 1.426715 -0.278984
v -0.030886 1.426715 -0.278984
v 0.030886 1.040005 -0.057045
v -0.030886 1.040005 -0.057045
v -0.030886 1.045001 -0.163877
v 0.030886 1.045001 -0.163877
v 0.030487 1.099010 -0.415351
v -0.031099 1.097546 -0.416665
v 0.030350 1.086153 -0.338998
v -0.031237 1.084689 -0.340312
v 0.031419 0.892617 -0.423587
v -0.030168 0.891153 -0.424901
v 0.031281 0.922623 -0.347441
v -0.030305 0.921159 -0.348754
v 0.030886 1.271876 -0.144618
v -0.030886 1.271876 -0.144618
v 0.030886 1.245014 -0.050417
v -0.030886 1.245014 -0.050417
v -0.030886 0.854207 -0.203307
v 0.030886 0.854207 -0.203307
v 0.030886 0.849211 -0.096475
v -0.030886 0.849211 -0.096475
v -0.030886 0.699344 -0.269825
v 0.030886 0.699344 -0.269825
v 0.030886 0.694348 -0.162994
v -0.030886 0.694348 -0.162994
v -0.030886 0.621484 -0.263562
v 0.030886 0.621484 -0.263562
v -0.030381 1.669455 -0.486466
v -0.030886 0.712655 -0.366109
v 0.030886 0.712655 -0.366109
v -0.030381 2.886767 -0.496215
v 0.030225 1.340373 -0.317078
v -0.031333 1.337990 -0.322283
v 0.031049 1.433297 -0.410121
v -0.030508 1.430914 -0.415326
v 0.031210 1.669455 -0.486466
v 0.031210 2.886767 -0.496215
v -0.030185 1.514539 -0.496108
v 0.031373 1.516922 -0.491046
v 0.030886 1.034514 0.044318
v -0.030886 1.034514 0.044318
v 0.030886 1.239523 0.064143
v -0.030886 1.239523 0.064143
v 0.030886 0.843720 0.004888
v -0.030886 0.843720 0.004888
v 0.030886 0.688857 -0.064939
v -0.030886 0.688857 -0.064939
v 0.030886 0.615993 -0.142170
v -0.030886 0.615993 -0.142170
v 0.000000 1.290439 0.174052
v 0.000000 2.123971 0.091352
v -0.000306 1.098278 -0.434694
v 0.000626 0.891885 -0.442930
v -0.000000 0.621484 -0.282248
v -0.000000 0.712655 -0.384795
v 0.031210 2.154700 -0.491340
v 0.000594 1.515730 -0.512263
v 0.000414 2.974676 -0.514901
v 0.000414 1.669455 -0.505152
v 0.000271 1.432105 -0.431409
v -0.030381 2.154700 -0.491340
v 0.000000 1.034514 0.149326
v 0.000000 1.239523 0.169152
v 0.000000 0.843720 0.109896
v 0.000000 0.688857 0.043377
v -0.000000 0.615993 -0.090013
v -0.000000 0.618739 -0.141587
v 0.000414 2.154700 -0.510026
v -0.000000 1.426715 -0.252626
v -0.000000 1.045001 -0.137518
v -0.000443 1.085421 -0.313297
v 0.000488 0.921891 -0.321739
v -0.000000 1.271876 -0.118260
v -0.000000 0.854207 -0.176948
v -0.000000 0.699344 -0.243467
v -0.000554 1.339182 -0.293322
vn -1.0000 -0.0011 -0.0054
vn -1.0000 -0.0000 -0.0000
vn 1.0000 -0.0000 -0.0000
vn 0.8905 0.2542 0.3774
vn -0.6707 -0.0557 0.7396
vn 1.0000 -0.0017 -0.0026
vn -0.6478 0.0644 -0.7591
vn -0.6413 0.1553 -0.7514
vn -0.9590 -0.0272 0.2821
vn 0.3730 -0.6934 -0.6165
vn -0.5056 0.0321 -0.8622
vn 1.0000 -0.0010 0.0051
vn -0.6583 -0.0425 0.7515
vn 1.0000 0.0050 0.0012
vn -0.5418 -0.5509 -0.6348
vn -0.6171 0.3106 -0.7230
vn -1.0000 0.0029 -0.0011
vn 1.0000 -0.0039 0.0010
vn 0.6215 0.2575 0.7399
vn 1.0000 -0.0020 0.0010
vn 0.9577 -0.0582 0.2817
vn 0.5083 -0.2653 -0.8193
vn 0.5131 -0.0054 -0.8583
vn -1.0000 -0.0001 -0.0051
vn -1.0000 0.0021 -0.0027
vn -0.6262 -0.3325 0.7052
vn 0.4631 -0.6171 -0.6361
vn 1.0000 0.0006 0.0039
vn 1.0000 0.0001 0.0033
vn 0.8283 -0.4608 0.3188
vn 0.9590 -0.0273 0.2821
vn -0.0894 -0.9946 -0.0529
vn -0.3304 -0.6552 -0.6793
vn 0.9590 -0.0272 0.2821
vn -1.0000 0.0026 0.0041
vn 0.0894 -0.9946 -0.0529
vn 0.0352 -0.9989 -0.0314
vn -0.0352 -0.9989 -0.0314
vn -0.8283 -0.4608 0.3188
vn -0.9577 -0.0582 0.2817
vn -0.9590 -0.0273 0.2821
vn -0.4848 0.0069 -0.8746
vn 0.5187 -0.0086 -0.8549
vn -0.5187 -0.0086 -0.8549
vn -0.5131 -0.0054 -0.8583
vn 0.5431 0.0326 -0.8390
vn -0.3730 -0.6934 -0.6165
vn -0.4903 -0.2691 -0.8290
vn 0.5505 0.0097 -0.8347
vn 0.5310 0.0362 -0.8466
vn -0.8905 0.2548 0.3768
vn -0.9590 0.0280 0.2821
vn 0.9534 -0.1215 0.2761
vn -0.9534 -0.1215 0.2761
vn 0.9590 0.0280 0.2821
vn -1.0000 0.0010 -0.0050
vn -1.0000 -0.0050 -0.0012
vn -0.4926 0.0466 -0.8690
vn 0.5983 -0.3342 0.7283
vn -0.6337 0.2593 0.7288
vn 0.6171 0.3106 -0.7230
vn 0.5418 -0.5509 -0.6348
vn 0.6409 -0.0359 0.7668
vn 0.6413 0.1553 -0.7514
vn 0.6478 0.0644 -0.7591
vn 0.6262 -0.0638 0.7771
vt 0.719104 0.703168
vt 0.826192 0.709690
vt 0.718402 0.725315
vt 0.758809 0.725315
vt 0.719104 0.352286
vt 0.758809 0.374433
vt 0.267627 0.296824
vt 0.422214 0.300067
vt 0.256067 0.274676
vt 0.345066 0.274676
vt 0.267627 0.647706
vt 0.345066 0.625559
vt 0.668939 0.698200
vt 0.668237 0.720347
vt 0.668939 0.347318
vt 0.217458 0.301793
vt 0.205898 0.279646
vt 0.217458 0.652675
vt 0.126616 0.927590
vt 0.096895 0.401704
vt 0.055062 0.416762
vt 0.521317 0.592536
vt 0.548385 0.598292
vt 0.578103 0.072407
vt 0.579984 0.632023
vt 0.579283 0.654170
vt 0.764702 0.117863
vt 0.552916 0.626267
vt 0.822505 0.249789
vt 0.128497 0.367972
vt 0.116937 0.345825
vt 0.086663 0.383030
vt 0.796635 0.249821
vt 0.790574 0.117880
vt 0.655629 0.824520
vt 0.193288 0.175473
vt 0.149061 0.181957
vt 0.904889 0.164080
vt 0.879017 0.164064
vt 0.611404 0.818037
vt 0.482691 0.785165
vt 0.970515 0.788787
vt 0.944709 0.789375
vt 0.015809 0.214277
vt 0.513919 0.793670
vt 0.967388 0.471493
vt 0.941583 0.470890
vt 0.047032 0.205772
vt 0.470722 0.870863
vt 0.970751 0.875297
vt 0.944945 0.875885
vt 0.003892 0.128575
vt 0.503633 0.861491
vt 0.967674 0.402902
vt 0.036798 0.137947
vt 0.941869 0.402299
vt 0.878833 0.259238
vt 0.628776 0.724253
vt 0.763599 0.054070
vt 0.166433 0.275741
vt 0.789470 0.054086
vt 0.904705 0.259255
vt 0.666845 0.739331
vt 0.204505 0.260662
vt 0.124787 0.104045
vt 0.905238 0.083858
vt 0.879366 0.083842
vt 0.587133 0.895949
vt 0.631357 0.902432
vt 0.169015 0.097561
vt 0.090730 0.042228
vt 0.060456 0.042228
vt 0.942379 0.310776
vt 0.905808 0.018472
vt 0.879936 0.018456
vt 0.553078 0.957767
vt 0.968249 0.310744
vt 0.526711 0.957767
vt 0.597302 0.964250
vt 0.134958 0.035744
vt 0.059849 0.009513
vt 0.090122 0.009513
vt 0.987053 0.072732
vt 0.526103 0.990483
vt 0.961176 0.072732
vt 0.552470 0.990483
vt 0.010398 0.492768
vt 0.052231 0.477710
vt 0.921888 0.405779
vt 0.831639 0.140320
vt 0.020959 0.051744
vt 0.987053 0.117310
vt 0.945060 0.950183
vt 0.961176 0.117310
vt 0.487216 0.948253
vt 0.970932 0.950218
vt 0.098411 0.985573
vt 0.921889 0.915554
vt 0.175850 0.963426
vt 0.533529 0.688596
vt 0.533529 0.660693
vt 0.821840 0.213010
vt 0.967584 0.578270
vt 0.941753 0.577217
vt 0.064980 0.347828
vt 0.796008 0.211958
vt 0.064980 0.310623
vt 0.498644 0.646025
vt 0.951333 0.160374
vt 0.498644 0.618121
vt 0.970932 0.648735
vt 0.030139 0.390397
vt 0.977128 0.162410
vt 0.945106 0.649739
vt 0.030139 0.353192
vt 0.476633 0.516529
vt 0.503701 0.522286
vt 0.896093 0.405765
vt 0.805844 0.140307
vt 0.589583 0.036569
vt 0.896094 0.915540
vt 0.549877 0.014422
vt 0.000000 0.428585
vt 0.977128 0.197742
vt 0.831648 0.075360
vt 0.951333 0.195766
vt 0.468429 0.579927
vt 0.805824 0.076384
vt 0.805348 0.815359
vt 0.697558 0.830984
vt 0.235221 0.169008
vt 0.401369 0.194398
vt 0.822053 0.730713
vt 0.714263 0.746338
vt 0.251927 0.253653
vt 0.418075 0.279044
vt 0.673287 0.908896
vt 0.781077 0.893271
vt 0.377095 0.116487
vt 0.210948 0.091096
vt 0.637856 0.970578
vt 0.745646 0.954953
vt 0.341662 0.054806
vt 0.175514 0.029415
vt 0.710519 0.982147
vt 0.961176 0.021828
vt 0.602729 0.997772
vt 0.987053 0.021828
vt 0.140385 0.002222
vt 0.306533 0.027613
vt 0.466757 0.295667
vt 0.870746 0.714092
vt 0.389608 0.270277
vt 0.803363 0.729717
vt 0.389608 0.621159
vt 0.803363 0.378836
vt 0.957612 0.789081
vt 0.957848 0.875591
vt 0.974114 0.072732
vt 0.974114 0.117310
vt 0.957996 0.950200
vt 0.521697 0.319800
vt 0.896101 0.608964
vt 0.964230 0.196754
vt 0.818736 0.075872
vt 0.594089 0.000000
vt 0.908985 0.952366
vt 0.180342 1.000000
vt 0.908990 0.405772
vt 0.818742 0.140313
vt 0.964230 0.161392
vt 0.958019 0.649237
vt 0.070228 0.680196
vt 0.921897 0.608977
vt 0.849902 0.819762
vt 0.445911 0.189999
vt 0.866606 0.735116
vt 0.462617 0.274644
vt 0.825630 0.897674
vt 0.421637 0.112087
vt 0.791575 0.959492
vt 0.387580 0.050270
vt 0.733092 0.984373
vt 0.974114 0.000000
vt 0.329093 0.025391
vt 0.974114 0.021634
vt 0.908999 0.608971
vt 0.809570 0.249805
vt 0.777638 0.117871
vt 0.891953 0.164072
vt 0.954485 0.471191
vt 0.954772 0.402600
vt 0.776534 0.054078
vt 0.891769 0.259246
vt 0.892302 0.083850
vt 0.955314 0.310760
vt 0.892872 0.018464
vt 0.808924 0.212484
vt 0.954668 0.577744
s 0
usemtl マテリアル
f 48/112/1 10/21/1 41/87/1 51/123/1
f 3/7/2 4/11/2 8/18/2 7/16/2
f 6/15/3 5/13/3 13/25/3 11/23/3 12/24/3
f 5/13/3 6/15/3 2/5/3 1/1/3
f 71/166/4 64/156/4 2/6/4 50/120/4
f 89/199/5 46/104/5 22/47/5 84/191/5
f 7/16/2 8/18/2 9/19/2 10/20/2 14/30/2
f 12/24/6 50/122/6 2/5/6 6/15/6
f 86/194/7 27/57/7 18/39/7 83/190/7
f 83/190/8 18/39/8 32/67/8 87/195/8
f 27/58/3 29/63/3 15/35/3 18/40/3
f 76/178/9 63/151/9 3/8/9 56/136/9
f 30/64/2 28/60/2 17/37/2 16/36/2
f 40/85/10 67/159/10 68/160/10 43/94/10
f 20/43/11 65/157/11 66/158/11 24/51/11
f 47/108/12 45/100/12 21/45/12 19/41/12
f 84/191/13 22/47/13 26/56/13 85/192/13
f 19/41/14 21/45/14 25/53/14 23/49/14
f 7/17/2 14/31/2 28/60/2 30/64/2
f 13/26/3 5/14/3 29/63/3 27/58/3
f 82/189/15 13/27/15 27/59/15 86/193/15
f 34/70/2 31/65/2 35/71/2 38/80/2
f 18/40/3 15/35/3 33/69/3 32/68/3
f 16/36/2 34/70/2 58/140/2 54/131/2
f 16/36/2 17/37/2 31/65/2 34/70/2
f 38/80/2 35/71/2 39/82/2
f 87/195/16 32/67/16 36/75/16 88/197/16
f 32/68/3 33/69/3 37/79/3 36/76/3
f 36/76/3 37/79/3 40/86/3
f 33/69/3 15/35/3 53/130/3 57/137/3
f 42/91/17 35/72/17 26/55/17 24/52/17
f 11/22/18 13/28/18 45/101/18 47/110/18
f 36/78/3 40/84/3 43/95/3
f 39/81/2 35/72/2 42/91/2
f 88/196/19 36/77/19 25/54/19 85/192/19
f 36/78/20 43/95/20 23/49/20 25/53/20
f 53/129/21 75/175/21 77/179/21 57/138/21
f 43/96/22 68/161/22 66/158/22 23/50/22
f 81/187/23 71/167/23 50/121/23 69/163/23
f 10/20/24 9/19/24 44/97/24 74/173/24 41/88/24
f 14/32/25 10/21/25 48/112/25 46/105/25
f 82/188/26 14/33/26 46/106/26 89/198/26
f 47/109/27 73/171/27 70/164/27 52/126/27
f 11/22/28 47/110/28 52/127/28 49/116/28
f 12/24/29 11/23/29 49/117/29 69/162/29 50/122/29
f 59/142/30 78/181/30 79/183/30 61/145/30
f 55/133/31 76/177/31 75/175/31 53/129/31
f 15/35/3 29/63/3 55/134/3 53/130/3
f 30/64/2 16/36/2 54/131/2 56/135/2
f 80/186/32 61/146/32 79/184/32
f 7/17/2 30/64/2 56/135/2 3/9/2
f 73/171/33 48/113/33 51/124/33 70/164/33
f 63/152/34 76/177/34 55/133/34 1/2/34
f 1/3/3 55/134/3 29/63/3 5/14/3
f 4/11/35 44/97/35 9/19/35 8/18/35
f 62/148/36 80/186/36 79/184/36
f 39/83/37 67/159/37 80/186/37 62/148/37
f 67/159/38 40/85/38 61/146/38 80/186/38
f 38/80/2 39/82/2 62/149/2 60/144/2
f 40/86/3 37/79/3 59/141/3 61/147/3
f 78/182/39 60/143/39 62/150/39 79/185/39
f 75/176/40 54/132/40 58/139/40 77/180/40
f 76/178/41 56/136/41 54/132/41 75/176/41
f 48/114/42 73/172/42 65/157/42 20/43/42
f 72/169/43 81/187/43 69/163/43 49/118/43
f 41/89/44 74/174/44 81/187/44 72/169/44
f 74/174/45 44/98/45 71/167/45 81/187/45
f 72/170/46 49/119/46 52/128/46 70/165/46
f 67/159/47 39/83/47 42/92/47 68/160/47
f 68/161/48 42/93/48 24/51/48 66/158/48
f 73/172/49 47/111/49 19/42/49 65/157/49
f 65/157/50 19/42/50 23/50/50 66/158/50
f 71/168/51 44/99/51 4/12/51 64/155/51
f 63/153/52 64/155/52 4/12/52 3/10/52
f 57/137/3 59/141/3 37/79/3 33/69/3
f 77/179/53 78/181/53 59/142/53 57/138/53
f 58/139/54 60/143/54 78/182/54 77/180/54
f 38/80/2 60/144/2 58/140/2 34/70/2
f 2/6/55 64/156/55 63/154/55 1/4/55
f 46/107/56 48/115/56 20/44/56 22/48/56
f 24/52/57 26/55/57 22/48/57 20/44/57
f 41/90/58 72/170/58 70/165/58 51/125/58
f 13/29/59 82/188/59 89/198/59 45/102/59
f 35/73/60 88/196/60 85/192/60 26/56/60
f 31/66/61 87/195/61 88/197/61 35/74/61
f 14/34/62 82/189/62 86/193/62 28/61/62
f 21/46/63 84/191/63 85/192/63 25/54/63
f 17/38/64 83/190/64 87/195/64 31/66/64
f 28/62/65 86/194/65 83/190/65 17/38/65
f 45/103/66 89/199/66 84/191/66 21/46/66
